<svg width="158" height="56" viewBox="0 0 158 56" fill="none" xmlns="http://www.w3.org/2000/svg">
<path d="M71.6542 30.816H78.4817V35.2947H65.4536V21.268H58.8652V16.7894H71.6522V30.816H71.6542ZM68.6383 13.1988C67.5895 13.1988 66.7014 12.8371 65.974 12.1158C65.2467 11.3945 64.883 10.5084 64.883 9.45957C64.883 8.41074 65.2467 7.52666 65.974 6.80333C66.7014 6.082 67.5895 5.72034 68.6383 5.72034C69.6751 5.72034 70.5571 6.082 71.2845 6.80333C72.0118 7.52465 72.3755 8.41074 72.3755 9.45957C72.3755 10.5084 72.0118 11.3925 71.2845 12.1158C70.5571 12.8392 69.6751 13.1988 68.6383 13.1988Z" fill="#2A3A9D"/>
<path d="M100.208 35.2947L94.4152 27.7639H91.6585V35.2947H85.4961V5.68616H91.6585V23.655H94.3047L99.5047 16.7894H106.26L99.0425 25.5799L106.945 35.2947H100.208V35.2947Z" fill="#2A3A9D"/>
<path d="M128.41 36.016L126.3 33.3698C125.719 33.9384 124.859 34.4688 123.718 34.9611C122.577 35.4554 121.094 35.7005 119.268 35.7005C116.664 35.7005 114.588 35.1721 113.041 34.1192C111.492 33.0644 110.718 31.5192 110.718 29.4839C110.718 27.6213 111.56 26.2088 113.244 25.2463C114.928 24.2839 117.313 23.8037 120.397 23.8037H124.468V23.5264C124.468 22.6745 124.072 22.0315 123.284 21.5935C122.495 21.1555 121.532 20.9365 120.397 20.9365C119.324 20.9365 118.396 21.1434 117.612 21.5573C116.828 21.9712 116.264 22.3811 115.918 22.787L110.977 19.5681C111.359 19.0618 111.992 18.5635 112.874 18.0692C113.756 17.575 114.851 17.1651 116.159 16.8376C117.467 16.51 118.948 16.3473 120.602 16.3473C122.476 16.3473 124.152 16.6005 125.625 17.1068C127.1 17.6131 128.259 18.3405 129.105 19.2909C129.949 20.2412 130.373 21.3765 130.373 22.6966V30.1911L132.758 32.9639L128.41 36.016ZM120.045 31.5012C121.02 31.5012 121.906 31.3384 122.702 31.0109C123.497 30.6834 124.086 30.2494 124.47 29.7069V27.7278H120.787C119.318 27.7278 118.275 27.8845 117.658 28.1999C117.041 28.5154 116.734 28.9675 116.734 29.5602C116.732 30.8542 117.837 31.5012 120.045 31.5012Z" fill="#2A3A9D"/>
<path d="M137.588 16.7893H142.678L143.455 19.325C144.11 18.4369 144.964 17.7216 146.019 17.1791C147.074 16.6366 148.342 16.3654 149.823 16.3654C152.302 16.3654 154.271 17.1851 155.726 18.8267C157.181 20.4683 157.91 22.8794 157.91 26.0621C157.91 29.2327 157.179 31.6317 155.718 33.2612C154.255 34.8888 152.18 35.7045 149.491 35.7045C148.221 35.7045 147.11 35.4674 146.16 34.9912C145.21 34.517 144.414 33.8902 143.773 33.1126V42.6988H137.592V16.7893H137.588ZM147.693 21.063C146.978 21.063 146.349 21.2338 145.806 21.5714C145.264 21.9109 144.82 22.3329 144.474 22.8392C144.129 23.3455 143.893 23.8519 143.771 24.3562V27.6313C143.893 28.1256 144.123 28.6339 144.456 29.1583C144.79 29.6828 145.224 30.1208 145.76 30.4724C146.297 30.824 146.929 30.9988 147.657 30.9988C149.001 30.9988 150.002 30.5769 150.655 29.731C151.308 28.8851 151.635 27.6614 151.635 26.058C151.635 24.4547 151.312 23.221 150.663 22.357C150.014 21.495 149.025 21.063 147.693 21.063Z" fill="#2A3A9D"/>
<path d="M59.1309 42.6084H58.8677V40.1873H59.1309V42.6084Z" fill="#0D0E4F"/>
<path d="M59.6455 40.1873H59.9047V41.2803H61.2469V40.1873H61.5061V42.6084H61.2469V41.4973H59.9047V42.6084H59.6455V40.1873Z" fill="#0D0E4F"/>
<path d="M63.1756 42.3974C63.4689 42.3974 63.704 42.305 63.8808 42.1201L64.0496 42.2829C63.8226 42.5159 63.5292 42.6325 63.1635 42.6325C62.8019 42.6325 62.5065 42.5179 62.2815 42.2909C62.0544 42.0598 61.9419 41.7625 61.9419 41.3988C61.9419 41.0351 62.0544 40.7377 62.2815 40.5067C62.5065 40.2776 62.8019 40.1631 63.1635 40.1631C63.5272 40.1631 63.8226 40.2796 64.0496 40.5127L63.8808 40.6795C63.706 40.4926 63.4709 40.4002 63.1756 40.4002C62.8903 40.4002 62.6572 40.4926 62.4804 40.6775C62.3036 40.8623 62.2131 41.1034 62.2131 41.4008C62.2131 41.6982 62.3016 41.9393 62.4804 42.1241C62.6572 42.305 62.8883 42.3974 63.1756 42.3974Z" fill="#0D0E4F"/>
<path d="M65.9768 40.4043H65.2815V42.6084H65.0224V40.4043H64.3271V40.1873H65.9768V40.4043Z" fill="#0D0E4F"/>
<path d="M105.29 40.4043H104.595V42.6084H104.335V40.4043H103.64V40.1873H105.29V40.4043Z" fill="#0D0E4F"/>
<path d="M66.6376 42.1182L68.1144 40.1873H68.2953V42.6084H68.032V40.6775L66.5552 42.6084H66.3784V40.1873H66.6376V42.1182V42.1182Z" fill="#0D0E4F"/>
<path d="M70.3449 40.4043H69.6497V42.6084H69.3905V40.4043H68.6953V40.1873H70.3449V40.4043Z" fill="#0D0E4F"/>
<path d="M72.2193 40.1873H72.4986L71.2829 42.6084H71.0037L71.4156 41.8469L70.5757 40.1873H70.855L71.5401 41.5475L72.2193 40.1873Z" fill="#0D0E4F"/>
<path d="M74.3796 40.4043H73.6844V42.6084H73.4252V40.4043H72.73V40.1873H74.3796V40.4043Z" fill="#0D0E4F"/>
<path d="M75.8282 42.6084H75.5649V40.1873H75.8282V42.6084ZM77.2668 42.6084H76.9312L75.8623 41.3667L76.8609 40.1873H77.1904L76.1918 41.3667L77.2668 42.6084Z" fill="#0D0E4F"/>
<path d="M77.6784 42.2909C77.4514 42.0598 77.3389 41.7625 77.3389 41.3988C77.3389 41.0351 77.4514 40.7377 77.6784 40.5067C77.9035 40.2776 78.1988 40.1631 78.5605 40.1631C78.9201 40.1631 79.2135 40.2776 79.4386 40.5067C79.6636 40.7377 79.7781 41.0351 79.7781 41.3988C79.7781 41.7625 79.6656 42.0598 79.4386 42.2909C79.2135 42.5199 78.9201 42.6325 78.5605 42.6325C78.1988 42.6325 77.9035 42.5179 77.6784 42.2909ZM77.8713 40.6754C77.6965 40.8583 77.6081 41.0994 77.6081 41.3988C77.6081 41.6982 77.6965 41.9393 77.8713 42.1221C78.0481 42.307 78.2792 42.3994 78.5605 42.3994C78.8398 42.3994 79.0668 42.307 79.2457 42.1221C79.4205 41.9393 79.5089 41.6982 79.5089 41.3988C79.5089 41.0994 79.4205 40.8583 79.2457 40.6754C79.0688 40.4906 78.8398 40.3982 78.5605 40.3982C78.2792 40.3982 78.0501 40.4906 77.8713 40.6754Z" fill="#0D0E4F"/>
<path d="M80.2144 40.1873H80.4735V41.2803H81.8157V40.1873H82.0749V42.6084H81.8157V41.4973H80.4735V42.6084H80.2144V40.1873Z" fill="#0D0E4F"/>
<path d="M83.7967 42.6084H83.5375V42.3733C83.2341 42.3733 82.9849 42.2829 82.794 42.1041C82.6052 41.9212 82.5107 41.6862 82.5107 41.3988C82.5107 41.1095 82.6052 40.8764 82.794 40.6956C82.9829 40.5128 83.2301 40.4223 83.5375 40.4223V40.1873H83.7967V40.4223C84.1001 40.4223 84.3472 40.5128 84.5361 40.6916C84.725 40.8724 84.8194 41.1075 84.8194 41.3968C84.8194 41.6882 84.725 41.9233 84.5361 42.1021C84.3472 42.2829 84.1001 42.3713 83.7967 42.3713V42.6084ZM83.5375 42.1382V40.6574C83.3144 40.6574 83.1316 40.7257 82.991 40.8644C82.8503 40.999 82.78 41.1758 82.78 41.3968C82.78 41.6158 82.8503 41.7947 82.991 41.9333C83.1336 42.0699 83.3165 42.1382 83.5375 42.1382ZM83.7967 40.6574V42.1382C84.0197 42.1382 84.2025 42.0699 84.3432 41.9333C84.4838 41.7947 84.5542 41.6158 84.5542 41.3968C84.5542 41.1758 84.4838 40.997 84.3432 40.8644C84.2066 40.7277 84.0237 40.6574 83.7967 40.6574Z" fill="#0D0E4F"/>
<path d="M85.0083 42.6084V42.4396C85.1349 42.4396 85.2353 42.4034 85.3077 42.3311C85.38 42.2587 85.4162 42.1563 85.4162 42.0257V40.1892H86.889V42.6084H86.6197V40.4042H85.6814V42.0096C85.6814 42.1965 85.6352 42.3451 85.5408 42.4557C85.4483 42.5662 85.3258 42.6224 85.1751 42.6224C85.0927 42.6224 85.0364 42.6184 85.0083 42.6084Z" fill="#0D0E4F"/>
<path d="M87.6685 42.6084H87.4053V40.1873H87.6685V42.6084Z" fill="#0D0E4F"/>
<path d="M88.4361 42.6084H88.1729V40.1873H88.4361V42.6084ZM89.8747 42.6084H89.5391L88.4702 41.3667L89.4688 40.1873H89.7984L88.7977 41.3667L89.8747 42.6084Z" fill="#0D0E4F"/>
<path d="M91.7717 40.4043H91.0765V42.6084H90.8173V40.4043H90.1221V40.1873H91.7717V40.4043Z" fill="#0D0E4F"/>
<path d="M92.2658 42.2909C92.0388 42.0598 91.9263 41.7625 91.9263 41.3988C91.9263 41.0351 92.0388 40.7377 92.2658 40.5067C92.4909 40.2776 92.7862 40.1631 93.1479 40.1631C93.5076 40.1631 93.8009 40.2776 94.026 40.5067C94.253 40.7377 94.3655 41.0351 94.3655 41.3988C94.3655 41.7625 94.253 42.0598 94.026 42.2909C93.7989 42.5199 93.5076 42.6325 93.1479 42.6325C92.7862 42.6325 92.4909 42.5179 92.2658 42.2909ZM92.4587 40.6754C92.2839 40.8583 92.1955 41.0994 92.1955 41.3988C92.1955 41.6982 92.2839 41.9393 92.4587 42.1221C92.6355 42.307 92.8666 42.3994 93.1479 42.3994C93.4272 42.3994 93.6562 42.307 93.8331 42.1221C94.0079 41.9393 94.0963 41.6982 94.0963 41.3988C94.0963 41.0994 94.0079 40.8583 93.8331 40.6754C93.6562 40.4906 93.4272 40.3982 93.1479 40.3982C92.8666 40.3982 92.6376 40.4906 92.4587 40.6754Z" fill="#0D0E4F"/>
<path d="M94.5483 42.6084V42.4396C94.6749 42.4396 94.7754 42.4034 94.8477 42.3311C94.9201 42.2587 94.9562 42.1563 94.9562 42.0257V40.1892H96.429V42.6084H96.1598V40.4042H95.2215V42.0096C95.2215 42.1965 95.1752 42.3451 95.0808 42.4557C94.9884 42.5662 94.8658 42.6224 94.7151 42.6224C94.6327 42.6224 94.5765 42.6184 94.5483 42.6084Z" fill="#0D0E4F"/>
<path d="M97.2048 42.2909C96.9778 42.0598 96.8652 41.7625 96.8652 41.3988C96.8652 41.0351 96.9778 40.7377 97.2048 40.5067C97.4298 40.2776 97.7252 40.1631 98.0869 40.1631C98.4465 40.1631 98.7399 40.2776 98.9649 40.5067C99.192 40.7377 99.3045 41.0351 99.3045 41.3988C99.3045 41.7625 99.192 42.0598 98.9649 42.2909C98.7379 42.5199 98.4465 42.6325 98.0869 42.6325C97.7252 42.6325 97.4318 42.5179 97.2048 42.2909ZM97.3997 40.6754C97.2249 40.8583 97.1365 41.0994 97.1365 41.3988C97.1365 41.6982 97.2249 41.9393 97.3997 42.1221C97.5765 42.307 97.8076 42.3994 98.0889 42.3994C98.3682 42.3994 98.5972 42.307 98.774 42.1221C98.9488 41.9393 99.0372 41.6982 99.0372 41.3988C99.0372 41.0994 98.9488 40.8583 98.774 40.6754C98.5972 40.4906 98.3682 40.3982 98.0889 40.3982C97.8056 40.3982 97.5765 40.4906 97.3997 40.6754Z" fill="#0D0E4F"/>
<path d="M99.9994 42.6084H99.7402V40.1873H100.948V40.4043H99.9994V42.6084Z" fill="#0D0E4F"/>
<path d="M101.605 42.6084H101.342V40.1873H101.605V42.6084Z" fill="#0D0E4F"/>
<path d="M102.131 39.8517C102.131 39.8959 102.115 39.9321 102.085 39.9642C102.053 39.9964 102.017 40.0104 101.973 40.0104C101.9 40.0104 101.852 39.9783 101.824 39.912C101.796 39.8457 101.808 39.7874 101.858 39.7372C101.908 39.6869 101.967 39.6749 102.033 39.703C102.097 39.7311 102.131 39.7794 102.131 39.8517ZM102.372 42.6084H102.109V40.1872H102.372V42.6084ZM102.352 39.8517C102.352 39.7834 102.385 39.7331 102.451 39.703C102.517 39.6729 102.575 39.6849 102.626 39.7372C102.678 39.7874 102.69 39.8457 102.66 39.912C102.63 39.9783 102.579 40.0104 102.511 40.0104C102.467 40.0104 102.431 39.9944 102.399 39.9642C102.368 39.9321 102.352 39.8959 102.352 39.8517Z" fill="#0D0E4F"/>
<path d="M111.476 42.6084H111.175L110.869 41.9092H109.682L109.377 42.6084H109.075L110.15 40.1873H110.399L111.476 42.6084ZM110.775 41.6741L110.281 40.5188L109.782 41.6741H110.775Z" fill="#0D0E4F"/>
<path d="M107.844 42.6084H107.542L107.239 41.9092H106.052L105.748 42.6084H105.447L106.522 40.1873H106.771L107.844 42.6084ZM107.141 41.6741L106.646 40.5188L106.148 41.6741H107.141Z" fill="#0D0E4F"/>
<path d="M111.836 40.1873H112.095V41.2803H113.437V40.1873H113.697V42.6084H113.437V41.4973H112.095V42.6084H111.836V40.1873Z" fill="#0D0E4F"/>
<path d="M116.453 42.6084H116.152L115.848 41.9092H114.661L114.358 42.6084H114.056L115.131 40.1873H115.38L116.453 42.6084ZM115.752 41.6741L115.258 40.5188L114.759 41.6741H115.752Z" fill="#0D0E4F"/>
<path d="M116.682 42.6084V42.4396C116.809 42.4396 116.909 42.4034 116.982 42.3311C117.054 42.2587 117.09 42.1563 117.09 42.0257V40.1892H118.563V42.6084H118.294V40.4042H117.355V42.0096C117.355 42.1965 117.309 42.3451 117.215 42.4557C117.122 42.5662 117 42.6224 116.849 42.6224C116.767 42.6224 116.71 42.6184 116.682 42.6084Z" fill="#0D0E4F"/>
<path d="M119.343 42.6084H119.08V40.1873H119.343V42.6084Z" fill="#0D0E4F"/>
<path d="M120.598 41.4731H120.235V41.2441H120.5C120.627 41.2441 120.729 41.2059 120.805 41.1275C120.882 41.0512 120.922 40.9467 120.922 40.8141C120.922 40.6855 120.884 40.581 120.807 40.5047C120.731 40.4283 120.627 40.3881 120.492 40.3881C120.289 40.3881 120.1 40.4745 119.927 40.6473L119.769 40.4846C119.986 40.2676 120.231 40.1591 120.506 40.1591C120.715 40.1591 120.88 40.2173 121 40.3339C121.121 40.4504 121.181 40.6051 121.181 40.796C121.181 41.0512 121.081 41.23 120.88 41.3285C121.008 41.3706 121.111 41.445 121.185 41.5515C121.259 41.658 121.296 41.7886 121.296 41.9413C121.296 42.1543 121.227 42.321 121.089 42.4436C120.95 42.5662 120.763 42.6284 120.524 42.6284C120.217 42.6284 119.953 42.5119 119.732 42.2788L119.901 42.1161C120.076 42.3049 120.279 42.3994 120.51 42.3994C120.673 42.3994 120.803 42.3552 120.896 42.2688C120.988 42.1824 121.036 42.0659 121.036 41.9212C121.036 41.7846 120.996 41.6761 120.916 41.5917C120.836 41.5153 120.729 41.4731 120.598 41.4731Z" fill="#0D0E4F"/>
<path d="M123.062 40.1873H123.341L122.123 42.6084H121.842L122.254 41.8469L121.414 40.1873H121.693L122.379 41.5475L123.062 40.1873Z" fill="#0D0E4F"/>
<path d="M124.759 42.6084H124.49V40.1873H125.143C125.352 40.1873 125.523 40.2495 125.652 40.3741C125.782 40.4947 125.848 40.6574 125.848 40.8644C125.848 41.0713 125.782 41.2361 125.652 41.3546C125.523 41.4772 125.352 41.5375 125.143 41.5375H124.759V42.6084ZM125.143 40.4163H124.759V41.3165H125.143C125.272 41.3165 125.378 41.2743 125.459 41.1919C125.539 41.1095 125.579 41.001 125.579 40.8664C125.579 40.7318 125.539 40.6233 125.459 40.5409C125.378 40.4565 125.272 40.4163 125.143 40.4163Z" fill="#0D0E4F"/>
<path d="M126.482 42.2909C126.255 42.0598 126.142 41.7625 126.142 41.3988C126.142 41.0351 126.255 40.7377 126.482 40.5067C126.707 40.2776 127.002 40.1631 127.364 40.1631C127.723 40.1631 128.017 40.2776 128.242 40.5067C128.469 40.7377 128.581 41.0351 128.581 41.3988C128.581 41.7625 128.469 42.0598 128.242 42.2909C128.015 42.5199 127.723 42.6325 127.364 42.6325C127.002 42.6325 126.709 42.5179 126.482 42.2909ZM126.677 40.6754C126.502 40.8583 126.413 41.0994 126.413 41.3988C126.413 41.6982 126.502 41.9393 126.677 42.1221C126.853 42.307 127.084 42.3994 127.366 42.3994C127.645 42.3994 127.874 42.307 128.051 42.1221C128.226 41.9393 128.314 41.6982 128.314 41.3988C128.314 41.0994 128.226 40.8583 128.051 40.6754C127.874 40.4906 127.645 40.3982 127.366 40.3982C127.082 40.3982 126.853 40.4906 126.677 40.6754Z" fill="#0D0E4F"/>
<path d="M130.158 42.3974C130.452 42.3974 130.687 42.305 130.864 42.1201L131.033 42.2829C130.805 42.5159 130.512 42.6325 130.146 42.6325C129.785 42.6325 129.489 42.5179 129.264 42.2909C129.037 42.0598 128.925 41.7625 128.925 41.3988C128.925 41.0351 129.037 40.7377 129.264 40.5067C129.489 40.2776 129.785 40.1631 130.146 40.1631C130.51 40.1631 130.805 40.2796 131.033 40.5127L130.864 40.6795C130.689 40.4926 130.454 40.4002 130.158 40.4002C129.873 40.4002 129.64 40.4926 129.463 40.6775C129.286 40.8623 129.196 41.1034 129.196 41.4008C129.196 41.6982 129.284 41.9393 129.463 42.1241C129.642 42.309 129.873 42.3974 130.158 42.3974Z" fill="#0D0E4F"/>
<path d="M131.688 42.6084H131.424V40.1873H131.688V42.6084Z" fill="#0D0E4F"/>
<path d="M132.214 39.8517C132.214 39.8959 132.198 39.9321 132.168 39.9642C132.136 39.9964 132.099 40.0104 132.055 40.0104C131.983 40.0104 131.935 39.9783 131.906 39.912C131.878 39.8457 131.89 39.7874 131.941 39.7372C131.991 39.6869 132.049 39.6749 132.115 39.703C132.18 39.7311 132.214 39.7794 132.214 39.8517ZM132.455 42.6084H132.192V40.1872H132.455V42.6084ZM132.435 39.8517C132.435 39.7834 132.467 39.7331 132.533 39.703C132.6 39.6729 132.658 39.6849 132.708 39.7372C132.76 39.7874 132.772 39.8457 132.742 39.912C132.712 39.9783 132.662 40.0104 132.594 40.0104C132.549 40.0104 132.513 39.9944 132.481 39.9642C132.451 39.9321 132.435 39.8959 132.435 39.8517Z" fill="#0D0E4F"/>
<path d="M51.8551 25.9275C51.8551 11.6095 40.2476 0 25.9275 0C11.6075 0 0 11.6075 0 25.9275C0 40.2456 11.6075 51.8551 25.9275 51.8551C28.5818 51.8551 31.1416 51.4552 33.5547 50.7138C33.4141 50.5692 33.2694 50.4305 33.1187 50.2999C32.4637 49.7353 31.7604 49.2069 31.013 48.7749C30.1189 48.2585 29.3835 47.5754 28.5898 46.9404C27.7921 46.3035 26.9945 45.538 25.8632 45.3652C24.937 45.2225 24.1634 44.6961 23.4541 44.0873C23.3215 43.9727 23.1025 43.9687 22.9337 43.8904C22.7007 43.7819 22.4214 43.7015 22.2586 43.5207C21.6378 42.8234 21.0511 42.0941 20.4603 41.3707C20.3096 41.1879 20.1268 40.997 20.0645 40.78C19.8194 39.9181 19.2287 39.3735 18.5515 38.829C18.011 38.393 17.6775 37.7099 17.1872 37.1975C16.7211 36.7093 16.2047 36.2572 15.6542 35.8694C14.959 35.3771 14.5049 34.7703 14.3883 33.9224C14.2798 33.1368 14.2356 32.3331 14.0407 31.5696C13.9162 31.0833 13.6007 30.6292 13.3053 30.2073C13.0321 29.8155 12.7066 29.4538 12.1199 29.496C12.0013 29.504 11.8064 29.1846 11.7401 28.9856C11.6055 28.5858 11.5352 28.1659 11.4186 27.6635C12.0295 27.2316 11.9411 26.4319 12.0194 25.7025C12.1038 24.935 12.7508 24.2639 13.5083 24.2056C13.8418 24.1795 14.1774 24.1011 14.4988 24.0027C14.8022 23.9102 15.0896 23.7616 15.4553 23.6068C15.3849 23.7877 15.3407 23.9022 15.2704 24.083C15.5497 24.1092 15.7928 24.1333 16.0701 24.1594C15.7064 24.7421 16.494 24.5894 16.5945 24.9611C16.6769 25.2705 17.0406 25.5036 17.3279 25.8231C18.0151 25.1178 18.7404 24.5452 18.9795 23.5667C19.1121 23.0262 19.3251 22.4957 19.5742 21.9954C20.0103 21.1234 19.956 20.1911 19.8716 19.2909C19.8395 18.9333 19.3492 18.6199 19.078 18.2763C18.9996 18.1758 18.9634 18.0432 18.9092 17.9246C19.0478 17.8945 19.2206 17.7961 19.3211 17.8443C19.6365 17.995 19.9259 18.1999 20.2353 18.3908C20.7557 17.7076 20.3719 16.9803 20.4081 16.2027C20.9908 16.484 20.8783 17.0365 21.1575 17.4404C21.1997 17.0245 21.2439 16.6086 21.3022 16.0339C21.6277 16.4277 21.8427 16.6909 22.0738 16.9722C23.2231 16.3032 24.1433 15.4211 24.8626 14.32C26.0401 12.5157 26.7955 10.5426 27.2496 8.44092C27.3642 7.91449 27.5751 7.40414 27.7761 6.90182C27.8263 6.77524 28.0091 6.70291 28.1317 6.60646C28.206 6.72702 28.3266 6.84356 28.3447 6.97215C28.4552 7.72562 28.5416 8.48311 28.64 9.28079C28.8008 9.02963 28.9676 8.76039 29.1424 8.49718C29.4257 8.07523 29.7029 7.64726 30.0084 7.24139C30.0847 7.14093 30.2595 7.1128 30.3901 7.05252C30.4424 7.18714 30.5509 7.32778 30.5388 7.45638C30.4685 8.25204 30.374 9.04772 30.2836 9.84138C30.2676 9.99006 30.2394 10.1387 30.1972 10.41C30.6694 9.82731 30.7799 9.10598 31.4952 8.73829C31.2722 9.64446 31.0733 10.4522 30.8723 11.2619C30.9165 11.284 30.9628 11.3041 31.007 11.3262C31.3104 11.1233 31.6138 10.9224 31.893 10.7355C31.7263 11.5432 31.5595 12.353 31.3626 13.3154C31.8569 12.9638 32.2105 12.7146 32.5621 12.4655C32.5742 12.4916 32.5862 12.5157 32.6003 12.5418C32.2869 13.1024 31.9734 13.663 31.66 14.2236C31.6981 14.2517 31.7363 14.2798 31.7725 14.308C32.0598 14.1512 32.3491 13.9945 32.6646 13.8237C32.317 14.7018 31.9995 15.4995 31.6439 16.3936C32.2246 16.0962 32.6606 15.8752 33.0946 15.6542C33.1328 15.7044 33.1709 15.7566 33.2111 15.8069C32.7128 16.4137 32.2567 17.0386 32.2266 17.9066C32.5842 17.8624 32.9077 17.8202 33.1991 17.784C32.8374 18.2823 32.4818 18.7726 32.0699 19.3412C32.5903 19.3954 32.9399 19.4316 33.3618 19.4758C32.8655 19.8656 32.4396 20.2011 32.0136 20.5347C32.0357 20.5829 32.0598 20.6291 32.0819 20.6773C32.9097 20.7798 33.7275 20.6432 34.5312 20.4543C36.882 19.8957 39.0058 18.8529 40.9709 17.4525C41.648 16.9702 42.3714 16.5523 43.0907 16.1364C43.2394 16.05 43.4684 16.1063 43.6593 16.0962C43.6292 16.2811 43.6533 16.5001 43.5608 16.6447C43.0987 17.3701 42.6044 18.0753 42.0921 18.8328C42.4497 18.7223 42.8074 18.5998 43.171 18.5013C43.7276 18.3506 44.2842 18.1999 44.8488 18.0854C44.9814 18.0593 45.2245 18.1376 45.2727 18.2361C45.323 18.3386 45.2406 18.5736 45.1401 18.6681C44.4088 19.3572 43.6593 20.0243 42.9139 20.6974C42.8516 20.7537 42.7893 20.8079 42.6265 20.9526C43.4564 20.8119 44.0933 20.2835 44.9955 20.4804C44.1154 21.1053 43.3418 21.6559 42.5683 22.2064C42.5884 22.2606 42.6085 22.3169 42.6306 22.3712C43.0505 22.4214 43.4704 22.4716 43.8401 22.5158C43.0806 23.0925 42.3251 23.6671 41.5697 24.2418C41.5918 24.282 41.6139 24.3242 41.636 24.3643C42.1423 24.4166 42.6486 24.4688 43.155 24.5211C43.153 24.5773 43.151 24.6356 43.1469 24.6918C42.3673 24.7803 41.6299 24.9711 41.0151 25.4895C41.4149 25.588 41.7867 25.6804 42.1423 25.7668C41.2221 26.247 40.3661 26.6951 39.5102 27.1432C39.5323 27.1853 39.5544 27.2295 39.5745 27.2717C40.1089 27.3983 40.6454 27.5269 41.1799 27.6535C41.1779 27.7238 41.1779 27.7962 41.1758 27.8665C40.2797 28.0493 39.3796 28.2241 38.7426 28.9575C39.0842 29.1906 39.4117 29.4136 39.7392 29.6366C38.9596 29.6085 38.2865 29.7532 37.6536 30.159C37.957 30.5046 38.2303 30.8161 38.5738 31.2079C37.6757 31.1295 36.8821 30.8462 36.1286 31.3566C36.4782 31.5716 36.7836 31.7584 37.087 31.9453C37.0729 31.9875 37.0609 32.0297 37.0468 32.0719C36.2069 31.875 35.4394 32.0036 34.708 32.53C34.9813 32.7791 35.2304 33.0102 35.5399 33.2935C34.0852 33.1408 34.0148 33.2031 34.2801 34.3222C33.7215 34.3644 33.1649 34.4086 32.542 34.4569C32.6063 34.6538 32.6626 34.8226 32.7128 34.9773C32.1764 34.9351 31.6278 34.8909 31.0431 34.8447C30.9728 35.1641 30.9125 35.4414 30.8683 35.6403C30.2233 35.576 29.6065 35.5137 28.9314 35.4474C28.8189 35.8352 28.7104 36.213 28.636 36.4742C27.9087 36.3637 27.2577 36.2652 26.5705 36.1607C26.4238 36.43 26.2792 36.6952 26.1827 36.872C25.5177 36.649 24.8787 36.436 24.2418 36.223C24.1895 36.2511 24.1353 36.2813 24.083 36.3094C24.1433 36.5184 24.1433 36.7876 24.2759 36.9242C24.6517 37.31 25.0656 37.6657 25.4976 37.9871C25.8994 38.2865 26.2993 38.5538 26.3917 39.1063C26.4158 39.251 26.5725 39.3856 26.6891 39.5041C27.6294 40.4746 28.5255 41.4692 28.9977 42.7752C29.064 42.9621 29.2569 43.151 29.4377 43.2374C29.8657 43.4403 30.3097 43.6312 30.7679 43.7417C32.1362 44.0732 33.1468 44.8367 33.6853 46.1428C34.2399 47.491 35.0576 48.6704 35.9317 49.8398C45.2908 45.9278 51.8551 36.6952 51.8551 25.9275Z" fill="#2A3A9D"/>
<path d="M34.8025 52.0239C35.6404 52.7954 36.3878 53.5911 36.6812 54.7484C36.8821 55.5441 37.6376 55.6747 38.2303 55.084C38.9175 54.3988 39.0119 53.4203 38.4995 52.4498C38.3609 52.1866 38.1801 51.8953 38.1801 51.616C38.1821 50.314 37.4427 49.7373 36.1708 50.1472C36.0945 50.0468 36.0201 49.9463 35.9438 49.8458C35.1642 50.1713 34.3665 50.4627 33.5527 50.7118C33.9747 51.1438 34.3605 51.616 34.8025 52.0239Z" fill="#2A3A9D"/>
</svg>
